<?xml version="1.0" encoding="UTF-8"?>
<svg id="Layer_1" data-name="Layer 1" xmlns="http://www.w3.org/2000/svg" viewBox="0 0 501.76 305.89">
  <defs>
    <style>
      .cls-1 {
        fill: #eeedeb;
      }

      .cls-2 {
        fill: #d65e9e;
      }

      .cls-3 {
        fill: #f8bcbc;
      }

      .cls-4 {
        fill: #ef726c;
      }

      .cls-5 {
        fill: #2d2a29;
      }

      .cls-6 {
        fill: #60554f;
      }
    </style>
  </defs>
  <path class="cls-5" d="M240.91,117.09c6.71-1.02,13.62-1.03,20.33,0,.35-8.35,2.18-17.37,4.85-25.27,1.89-5.61,8.99-17,9.53-21.04.38-2.84-.82-4.96-.85-7.53-.17-15.17-.63-35.55,6.98-49.09,12.26-21.82,42.05,3.44,53.75,14.52,17.76-5.31,36.76-5.25,54.85-1.6,1.62-.47,3.35-8.77,4.36-10.95,9.02-19.54,27.88-7.17,33.47,7.62,21.05-10.54,40.3-11.21,40.74,17.73,11.33,1.91,19.46,10.42,13.81,22.07-2.06,4.25-6.87,7.53-8.33,10.33s-1.61,7.28-3.55,10.87c-1.27,2.36-5.2,5.69-5.43,7.36-.34,2.44,3.43,13.27,4.03,17.16,1.44,9.42,1.69,19.65.24,29.04,15.39-.5,13.2,4.85-.81,3.44.44,1.96-2.57,9.13-1.7,10.11.44.5,9.01,1.06,8.44,3.84-.71,3.46-8.15-2.16-10.17-.9-.66.41-4.65,8.79-4.12,9.7,1.66.55,10.46,6.32,9.64,7.76-1.69,2.98-9.98-5.16-11.87-5.93-6.43,8.44-14.41,16.14-24.14,20.79-1.8,1.6,2.73,6.09,3.65,9.05.86,2.76,1.38,6.4.57,9.16,16.12,4.11,32.54,8.32,48.11,14.22,3.1,1.18,16.14,4.75,8.61,7.5-8.41-3.33-16.92-6.5-25.56-9.2-4.52-1.41-30.43-9.59-32.72-8.13-.97.62-1.23,5.09-6.91,7.07-5.54,1.94-6.66-.33-10.61-.29-1.62.02-2.99,1.2-4.44,1.42-6.46.95-13.04-6.54-19.27-8.32-3.47-2.83-3.64-6.45-5.24-10.22-22.06-3.72-44.29-7.57-66.68-8.51-1.66,5-4.18,8.82-9.61,10.04-3.48.79-7.17,1.91-10.16,2.55-7.4,1.58-7.85-1.89-11.85-3.03-3.58-1.01-5.52.68-9.85-2.02-4.68-2.91-4.56-6.87-7.03-10.78h-50.19c-1.11,5.37-3.5,10.85-9.37,12.26-2.14.51-4.28.06-6.21.56-4.28,1.13-4.67,4.55-11.88,3-2.97-.64-6.74-1.77-10.15-2.55-6.01-1.39-7.98-4.82-10.51-10.02-22.39,1.11-44.59,4.8-66.66,8.48-1.21,4.14-2.1,8.56-6.06,11.08-2.23,1.42-4.4,1.17-6.3,2.17-3.26,1.71-3.4,4.73-9.2,5.27-3.4.32-4.45-1.12-6.65-1.25-3.82-.24-4.96,2.37-10.68.36s-6.3-6.47-7.59-7.23c-2.49-1.47-28.03,6.63-32.68,8.08-3.69,1.15-25.22,9.72-26.49,9.14-.26-.12-1.65-1.58-1.65-1.7-.09-2.57,27.63-11.32,31.53-12.53s26.87-6.32,27.65-7.52c.45-.7-.06-6.52.68-9.08.79-2.74,3.66-5.89,5.36-8.21-10.39-4.63-18.69-12.83-25.83-21.56-1.73,1.01-9.95,8.19-11.44,6.71-2.69-2.69,10.08-8.15,10.08-9.75-2.14-1.43-3.48-7.6-4.99-8.56-1.73-1.09-9.44,4.4-10.17.9-.58-2.77,7.91-3.3,8.4-3.87.71-.83-1.38-9.88-2.45-10.63-.66-.46-8.32,1.26-10.2.5-1.93-4.92,9.52-2.72,10.17-3.39-2.14-13.42-.39-26.34,2.6-39.4.68-2.95,4.06-11.03,4.09-12.78.03-1.94-2.5-8.44-3.04-11.31-2.6-13.81-5.68-36.86.69-49.7,9.5-19.16,42.32.65,54.54,8.51,16.85-7.01,35.89-10.26,54.22-9.03,4.97.33,17.87,3.93,21.15,3.4,1.17-.19,12.01-9.95,14.61-11.74,7.39-5.07,23.56-14.19,32.21-9.66,15.28,8.01,13.91,44.49,13.85,59.18-.04,10.11.41,6.21,4.09,14.5,5.1,11.47,9.22,24.11,9.43,36.81ZM223.96,130.67c.44-.46,10.81.34,12.71,0l.84-9.33c-2.88-.49-14.57,5.77-16.09,4.23-.25-.25-.27-1.98.59-2.55,3.41-2.23,10.52-4.23,14.58-5.17.38-9.63-2.31-20.27-5.82-29.22-1.45-3.71-7.09-12.47-7.62-15.29-1.21-6.5,1.2-19.14.8-27.11-.35-7.03-1.63-16.67-3.8-23.35-1.22-3.76-4.94-11.97-8.86-13.19-11.6-3.6-31.52,12.25-39.93,19.52-1.23,1.06-1.21,3.12-2.89,3.1-18.72-3.92-36.78-5.79-55.7-1.55-1.38.31-9.89,2.73-10.31,3.07-.84.66-.47,1.74-.52,2.64-1.54.21-.01-1.78-2.06-1.77-3.19.01-6.16,2.94-9.38,2.71-2.68-.19-8.18-5.14-11.13-6.76-7.45-4.08-26.94-13.09-34.66-8.66-9.54,5.48-8.28,30.62-7.06,40.26.99,7.85,5.97,20.23,4.78,27.05-.6,3.44-3.13,8.5-3.94,12.17-2.66,12.06-3.55,24.57-1.78,36.82,2.52-.19,14.48,1.27,15.24,2.98.18.39.29,2.03-.42,2.12-4.13.51-9.49-2.64-13.97-1.7l2.25,8.54,13-.9c-.77,4.79-7.08,2.8-10.7,4.15-.79.3-1.59-.34-1.12,1.31.62,2.13,3.9,4.29,3.35,7.27.61.57,9.77-6.27,11.85-4.24,2.92,2.86-9.3,5.55-9.3,7.21.71,1.21,2.3,1.52,3.09,2.41,3.69,4.08,7.18,9.1,12.36,12.74,3.1,2.18,4.69.35,4.86.55.33.38-.21,4.18,4.67,4.19,1.66,0,5.2-2.34,7.22-2.89,11.02-2.97,21.96-2.18,28.66,7.74.78,1.15.87,3.54,1.78,4.15,3.1,2.1,34.18-3.91,40.29-4.69,9.07-1.17,18.42-1.39,27.5-2.59.81-12.75,11.99-20.25,24.17-20.4,3.07-.04,12.28,2.58,13.12,2.22.67-.28,7.52-7.37,8.47-8.54,1.19-1.46,8.31-12,8.43-12.79.42-2.75-7.79-2.75-9.56-3.73-1.41-.78-.44-3.4,1.41-3.27,7.1.48,11.12,7.72,11.61-6.06-1.7-.3-10.64.39-11.02,0-.12-.12-.11-3.27,0-3.39ZM265.48,130.67h12.71c.17,0,.81,2.83.85,3.39h-11.86l1.7,8.49c.88.82,8.47-2.33,9.91-2.42,1.85-.12,2.82,2.5,1.41,3.27s-9.5,1.37-9.61,2.96c1.97,4.22,14.23,22.75,18.9,22.3,1.7-.16,5.12-1.97,7.87-2.24,13.07-1.3,27.01,5.91,27.47,20.22,22.6.72,44.72,6.74,67.21,7.56,1.53-.52,1.64-3.48,2.69-4.95,6.75-9.49,17.82-10.06,28.33-7.22,4.1,1.11,6.6,4.72,10.66,1.27.79-.67,1.07-2.22,1.35-2.4.15-.1,1.7.59,3.56-.21,5.85-2.5,12.38-10.93,16.63-15.65,0-1.66-12.22-4.34-9.3-7.21,2.02-1.99,9.62,3.9,11.34,3.35.72-.23,4.27-7.07,3.91-7.59-3.81-2.11-11.62,1.55-11.01-4.25,8.77-1.01,14.92,5.12,14.4-7.64-2.44-1.04-13.41,2.64-14.4,1.69-.55-.52-.09-2.66,1.45-3.21,4.21-1.51,9.63-.6,13.85-2.42,1.24-2.16,1.12-20.05.79-23.63-.24-2.63-3.6-18.6-4.66-19.98s-2.89.16-4.83-.14c-10.83-1.65-18.45-13.63-21.89-23.14-.52-1.43-1.45-6.94-1.74-7.17-.33-.26-3.36.03-4.98-.54-.78-.27-4.7-3.05-5.57-3.78s-1.08-2.26-1.36-2.47c-.47-.34-9.19,2.25-11.33,2.45-9.97.91-12.15-1.76-19.87-3.02-1.18-.19-3.24.64-3.39.49-.12-.12,0-1.68-.5-2.46-1.26-1.93-3.4-3.54-4.12-6.1-1.8-6.4.71-12.7,4.59-17.75-11.02-2.27-23-3-34.21-1.6-3.1.39-16.89,4.14-17.78,3.96-1.55-.31-4.47-4.78-7.32-4.08l1.69-1.26c-12.44-9.59-37.77-31.55-46.18-6.38-3.56,10.66-4.95,25.72-4.64,36.91.1,3.74,1.85,10.91,1.45,14.34-.26,2.26-8.14,15.27-9.51,19.19s-6.17,23.69-4.55,26.2c3.86,1.53,11.46,2.65,14.61,5.14.81.64.69,2.44.53,2.6-1.46,1.47-14.58-4.99-15.25-4.24v9.33ZM416.3,49.2c-1.63-.29-5.44.72-3.01-2.59,1.87-2.56,10.24,2.51,8.82-2.79-1.15-4.27-10.87-6.32-10.87-7.78,0-4.33,13.36,1.88,13.11,5.51,2.33-2.32,5.03-2.17,4.52-6.13-.88-6.83-9.75-23-16.77-24.86-14.16-3.76-13.35,9.95-17.79,17.91-1.33,2.38-3.97,3.68-5.37,5.67-7.12,10.13-4.13,16.87,7.04,20.15,1.88.55,3.41,1.37,5.62,1.59,3.36.33,17.02-.61,18.56-3.26,1.85-3.18-1.41-2.99-3.84-3.42ZM459.21,23.2c-6.62-6.04-21.03,1.16-28.44,3.15-.42,4.12,1.6,7.92,2.49,11.82,1.18.88,11.33-8.45,17.77-5.5,3.95,1.81,3.09,7.72,3.4,8.04.35.37,8.56-.26,10.17,0,.46-5.2-1.44-13.92-5.39-17.52ZM427.31,44.11c-4.27,4.98-5.46,11.07,1.1,14.6,4.65,2.51,7.03,2.39,10.28-1.93,5.16-6.84,4.02-11.24-3.76-14.37-3.53-1.42-4.96-1.4-7.63,1.7ZM451.04,45.81c-4.93,1.05-7.06.89-5.98,7.15.12.67,10.61,2.27,11.5,6.41l-3.83,1.71c1.28-3.66-13.16-6.46-10.61-1.68.71,1.33,3.55,2.85,3.83,5.08-.14.13.09,1.19,0,1.7-4.91,2.64-3.3-7.95-9.38-2.87,1.76,6.9,4.57,14.73,9.36,20.1.71.8,1.64.51,1.72.59,3.61,3.47,5.17,6.75,11.37,5.9,9.11-1.25,10.05-12.73,13.2-19.48,21.46-20.16-.45-29.02-21.18-24.61ZM262.09,130.66c-1.04-2.16-.28-9.73-1.64-10.66-1.78-1.22-18.02-1.21-19.17.43s.28,7.75-1.22,10.23c1.85-.15,12.38,1.21,9.32,4.24-.94.93-7.22-2-9.37-.47-.6.43-2.74,8.15-2.4,9.24.73,2.34,11.55,3.98,10.92,6.92-1.02,1.3-1.06,1.3-2.57.92-2.23-.56-8.5-5.29-10.87-3.77-.46.29-4.13,7.77-5.35,9.5-3.46,4.91-7.38,9.55-11.69,13.73,4.25,3.5,6.4,7.77,7.73,13.04l51.53.08c.07-5.75,3.2-9.96,7.65-13.12-7.11-7.11-14.87-14.21-17.79-24.19l-12.69,5.09c-2.72-4.79,11.07-6.41,11.05-8.12-1.35-1.42-2.26-9.31-2.62-9.66-1.3-1.26-13.17,3.28-10.08-1.67.31-.5,7.83-1.76,9.27-1.77ZM212.11,196.86c7.7-.57,10.3-6.76,9.11-13.8-3.15-18.68-40.66-16.29-39.67,4.89.05,1.16,1.9,6.4,2.58,6.88.76.54,2.1-.54,2.43-.34.24.14,2.25,4.4,4.36,2.37.9-.87-2.4-5.72.54-6.68,5.01-1.64,1.54,3.86,3.77,7.04,4.46,6.36,15.41,1.86,12.63-6.68,4.97-2.08,4.45,2.67,4.26,6.31ZM312.09,197.7c4.34-.91,7.94-3.47,8.48-8.04,2.83-23.58-36.86-25.37-39.64-5.75-1.03,7.25,3.12,12.06,9.97,12.94-3.4-4.85,2.98-10.5,4.01-4.47.74,4.35.65,8.57,7.2,7.72,8.67-1.12,3.75-11.59,8.69-10.03,2.42,1.16.7,6.97,1.28,7.63ZM95.18,201.96c5.15-.53,3.64,1.43,4.26,4.64.94,4.85,6.38-1.5,6.8-5.04,2.55-21.42-31.23-21.57-38.33-5.28-3.82,8.77.94,18.8,11.17,17.55-1.05-1.66-1.33-10.3,2.53-7.63,1.55,1.07.02,10.73,10.14,7.16,5.56-1.96,3.86-6.87,3.43-11.4ZM430.42,190.35c-1.19-.99-8.88-4.89-10.52-5.16-5.55-.94-15.2-.69-19.42,3.48-4.01,3.94-6.89,14.65-1.62,18.45,5.01,3.6,3.37-1.4,4.05-3.7.84-2.83,3.69-3.47,4.06.66.39,4.48-1.81,8.08,4.84,9.6,8.97,2.05,6.88-7.08,9.18-7.5,5.24-.95,1.6,7.23,2.08,7.67,9.55,1.57,15.14-8.07,11.92-16.6-.24-.64-4.21-6.57-4.57-6.88Z"/>
  <path class="cls-6" d="M223.96,130.67c-.12.12-.12,3.27,0,3.39.38.4,9.32-.29,11.02,0-.49,13.78-4.51,6.54-11.61,6.06-1.85-.12-2.82,2.5-1.41,3.27,1.77.98,9.98.98,9.56,3.73-.12.79-7.24,11.33-8.43,12.79-.96,1.17-7.81,8.26-8.47,8.54-.84.36-10.05-2.26-13.12-2.22-12.18.15-23.35,7.65-24.17,20.4-9.08,1.2-18.43,1.42-27.5,2.59-6.11.79-37.19,6.8-40.29,4.69-.91-.62-1.01-3.01-1.78-4.15-6.69-9.92-17.64-10.71-28.66-7.74-2.02.55-5.56,2.89-7.22,2.89-4.87-.02-4.33-3.81-4.67-4.19-.17-.2-1.76,1.63-4.86-.55-5.18-3.64-8.67-8.66-12.36-12.74-.8-.88-2.39-1.2-3.09-2.41,0-1.66,12.22-4.35,9.3-7.21-2.08-2.03-11.24,4.81-11.85,4.24.55-2.98-2.73-5.13-3.35-7.27-.48-1.64.33-1.01,1.12-1.31,3.62-1.35,9.92.64,10.7-4.15l-13,.9-2.25-8.54c4.48-.94,9.84,2.21,13.97,1.7.72-.09.6-1.73.42-2.12-.76-1.71-12.72-3.18-15.24-2.98-1.77-12.25-.88-24.75,1.78-36.82.81-3.67,3.34-8.73,3.94-12.17,1.19-6.82-3.79-19.21-4.78-27.05-1.22-9.64-2.48-34.78,7.06-40.26,7.72-4.43,27.21,4.57,34.66,8.66,2.95,1.62,8.45,6.57,11.13,6.76,3.22.22,6.19-2.7,9.38-2.71,2.05,0,.52,1.98,2.06,1.77.04-.89-.32-1.98.52-2.64.42-.33,8.93-2.76,10.31-3.07,18.92-4.24,36.99-2.37,55.7,1.55,1.68.02,1.67-2.04,2.89-3.1,8.41-7.26,28.33-23.12,39.93-19.52,3.92,1.22,7.63,9.43,8.86,13.19,2.17,6.68,3.45,16.32,3.8,23.35.4,7.97-2.01,20.61-.8,27.11.52,2.81,6.16,11.57,7.62,15.29,3.51,8.95,6.2,19.59,5.82,29.22-4.06.94-11.17,2.93-14.58,5.17-.86.56-.84,2.29-.59,2.55,1.53,1.54,13.21-4.72,16.09-4.23l-.84,9.33c-1.9.34-12.27-.46-12.71,0ZM203.98,51.39c2.69,2.08,8.24,8.12,9,1.67s.82-31.81-8.92-31.89c-4.87-.04-19.54,10.61-19.12,15.69.22,2.71,8.42,5.94,10.98,7.76,2.89,2.05,5.33,4.67,8.06,6.78ZM50.35,67.8c3.04,2.18,8.4-7.08,10.07-8.86,2.36-2.51,5.11-5.3,7.64-7.63,3.25-2.99,8.36-3.57,5.46-8-3.53-5.39-19.66-15.57-24.67-8.28-2.93,4.27-2.1,30.17,1.51,32.76ZM199.17,127.05c.36-.36,3.27-6.46,3.42-7.18,5.22-25.29-28.61-32.14-35.16-10.6-4.29,14.11,6.56,24.5,20.51,23.09,3.14-.32,9.06-3.14,11.23-5.3ZM75.98,138.86c7.64,7.51,20.54,5.93,27.25-2.25,3.58-4.36,4.28-7.47,3.79-13.15-1.71-19.81-29.44-21.77-35.62-4.29-2.26,6.41-.27,14.94,4.57,19.69ZM138.4,142.55c4.8,2.28,6.47,5.18,12.4,3.53,7.24-2.01,8.89-11.1,4.96-10.32-1.93,1.18-2.02,3.68-3.34,5.15-4.3,4.79-13.31-1.08-12.24-5.5.23-.95,7.69-4.71,4.61-9.05-.76-1.07-11.21-.29-12.65.17-2.02.65-1.69,4.34-.96,5.83.93,1.91,4.86,2.17,5.42,3.96,1.02,3.22-3.11,8.55-6.24,8.7-4.62.22-6.63-4.59-7.74-4.94-5-1.61-1.73,5.13,1.4,7.09,5.08,3.18,12.56,1.11,14.38-4.62ZM202.5,132.69c-15.11.05-18.09,15-.1,13.29,13.5-1.28,14.22-13.34.1-13.29ZM75.46,146.15c-13.57,2.33-11.73,14.7,3.09,13.29,16.33-1.56,12.49-15.96-3.09-13.29Z"/>
  <path class="cls-6" d="M265.48,130.67v-9.33c.68-.76,13.79,5.71,15.25,4.24.16-.16.28-1.96-.53-2.6-3.15-2.5-10.76-3.62-14.61-5.14-1.62-2.51,3.21-22.38,4.55-26.2s9.25-16.93,9.51-19.19c.4-3.43-1.35-10.6-1.45-14.34-.3-11.19,1.08-26.26,4.64-36.91,8.41-25.17,33.74-3.22,46.18,6.38l-1.69,1.26c2.84-.7,5.77,3.77,7.32,4.08.89.18,14.68-3.58,17.78-3.96,11.2-1.4,23.19-.67,34.21,1.6-3.89,5.05-6.39,11.34-4.59,17.75.72,2.56,2.86,4.17,4.12,6.1.51.78.38,2.34.5,2.46.16.15,2.21-.68,3.39-.49,7.72,1.26,9.9,3.92,19.87,3.02,2.14-.19,10.86-2.79,11.33-2.45.28.21.5,1.75,1.36,2.47s4.8,3.51,5.57,3.78c1.62.57,4.65.27,4.98.54.29.23,1.22,5.74,1.74,7.17,3.44,9.51,11.06,21.49,21.89,23.14,1.94.3,3.73-1.29,4.83.14s4.42,17.34,4.66,19.98c.32,3.58.45,21.47-.79,23.63-4.21,1.82-9.63.92-13.85,2.42-1.54.55-2,2.68-1.45,3.21.99.95,11.96-2.74,14.4-1.69.51,12.77-5.63,6.63-14.4,7.64-.61,5.8,7.2,2.14,11.01,4.25.36.51-3.19,7.35-3.91,7.59-1.72.55-9.32-5.34-11.34-3.35-2.92,2.86,9.3,5.55,9.3,7.21-4.25,4.72-10.78,13.15-16.63,15.65-1.86.8-3.41.11-3.56.21-.28.18-.56,1.73-1.35,2.4-4.06,3.46-6.56-.16-10.66-1.27-10.51-2.84-21.58-2.27-28.33,7.22-1.04,1.47-1.16,4.42-2.69,4.95-22.5-.82-44.61-6.84-67.21-7.56-.45-14.31-14.4-21.52-27.47-20.22-2.76.27-6.18,2.08-7.87,2.24-4.67.45-16.93-18.08-18.9-22.3.1-1.59,8.14-2.15,9.61-2.96s.44-3.4-1.41-3.27c-1.44.1-9.02,3.24-9.91,2.42l-1.7-8.49h11.86c-.04-.56-.67-3.39-.85-3.39h-12.71ZM297.48,21.36c-1.55.19-3.47,1.12-4.45,2.39-3.61,4.68-4.57,23.3-3.86,29.31.95,8.13,10.44-3.49,13.2-5.53,3.14-2.33,6.47-4.28,9.8-6.3,1.83-1.11,4.63-.82,5.04-3.51.9-5.89-13.66-17.09-19.73-16.36ZM298.42,99.39c-2.13-1.22-3.86,1.2-3.16,3.54.61,2.04,4.36,2.6,4.84,4.55.36,1.48-1.13,7.09-.53,10.68,3.34,19.68,34.64,19.07,36.22-1.51.97-12.63-8.38-20.92-20.79-19.96-2.52.19-7.92,2.61-8.35,2.51-2.04-.46-1.85-6.4-4.31-5.87-4.19.9,2.33,9.13,1.25,10.17-2.14,2.07-4.88-3.94-5.19-4.12ZM416.51,107.45c-.25-.07-.2-1.29-.59-1.28-12.82.37-22.9,9.64-20.61,23.02,3.32,19.36,34.08,18.91,36.55-1.25.22-1.8-.66-6.08-.25-6.55.28-.33,6.28-.78,6.61-4.86.43-5.42-7.3,2.32-8.36,1.4-1.86-3.05,1.84-3.23,2.91-5.98.55-1.42.63-2.71.47-4.2-3.01-1.31-4.88,5.07-6.35,5.05-.36,0-4.12-3.68-5.74-4.4-1.49-.67-3.08-.55-4.64-.96ZM382.4,140.01c-2.7-2.7-5.59,7-11.61,4.47-2.35-.99-5.87-5.81-5.23-8.23.3-1.11,9.8-3.96,5.37-8.92-2.4-2.7-3.76-.92-5.88-1.09-4.4-.34-9.69-2.81-7.7,4.52.5,1.84,3.93,2.71,3.96,6.28.03,4.69-6.64,7.13-10.59,4.58-.83-.54-4.87-10.27-6.4-4.49-1.04,3.94,4.87,7.03,6.25,8.88,3,4.02,3.14,10.13,10.21,10.98,9.74,1.17,8.26-3.58,12.77-7.61,1.32-1.18,3.18-1.18,4.59-2.19s5.94-5.5,4.26-7.18ZM299.08,132.69c-16.56.52-10.11,15.99,7.29,13.05,13.11-2.21,4.09-13.41-7.29-13.05ZM434.7,149.57c-4.87-4.94-22.18-5.06-21.81,2.66.55,11.48,32.12,7.81,21.81-2.66Z"/>
  <path class="cls-1" d="M262.09,130.66c-1.44,0-8.96,1.27-9.27,1.77-3.09,4.95,8.78.42,10.08,1.67.36.35,1.26,8.24,2.62,9.66.03,1.71-13.77,3.33-11.05,8.12l12.69-5.09c2.92,9.98,10.68,17.08,17.79,24.19-4.45,3.16-7.57,7.37-7.65,13.12l-51.53-.08c-1.33-5.27-3.48-9.54-7.73-13.04,4.31-4.18,8.24-8.83,11.69-13.73,1.22-1.73,4.89-9.21,5.35-9.5,2.37-1.52,8.64,3.21,10.87,3.77,1.52.38,1.55.38,2.57-.92.62-2.94-10.19-4.58-10.92-6.92-.34-1.09,1.8-8.81,2.4-9.24,2.15-1.53,8.43,1.4,9.37.47,3.06-3.03-7.47-4.39-9.32-4.24,1.5-2.48.11-8.66,1.22-10.23s17.39-1.64,19.17-.43c1.36.93.6,8.5,1.64,10.66Z"/>
  <path class="cls-2" d="M395.96,54.29c-11.16-3.28-14.15-10.02-7.04-20.15,1.4-1.99,4.04-3.29,5.37-5.67,4.44-7.95,3.63-21.66,17.79-17.91,7.02,1.86,15.89,18.03,16.77,24.86.51,3.96-2.19,3.81-4.52,6.13.25-3.63-13.1-9.84-13.11-5.51,0,1.46,9.72,3.51,10.87,7.78,1.42,5.29-6.95.23-8.82,2.79-2.43,3.32,1.38,2.3,3.01,2.59l2.54,3.39c-3.43-1.56-5.34,1.61-5.66,1.68-4.41,1.06-12.33-.73-17.21.02ZM411.98,15.33c-2.64-1.12-7.13-2.1-6.73,2.01.48,4.91,8.27,3.47,6.73-2.01ZM414.61,23.74c.46.51,4.77-.01,4.23-2.1-1.01-3.92-6.51-.42-4.23,2.1Z"/>
  <path class="cls-2" d="M451.04,45.81l15.63.05c2.93,2,7.66.64,9.5,3.63.49.81.1,2.14.57,2.84s2.93,1.92,3.09,2.57c.74,3-1.3,2.79-1.39,3.04-2.06,5.96-4.01,7.77-6.22,12.49-3.15,6.75-4.09,18.23-13.2,19.48-6.2.85-7.76-2.44-11.37-5.9,1.18-3.11-3.32-6.15-3.41-6.53-.33-1.41.33-3.24,0-4.77-.14-.67-1.53-.21-1.74-1.8-.69-5.12,2.21-2.14,3.46-3.01.14-.1-.09-1.19,0-1.7s-.14-1.57,0-1.7c.21-.19,1.55.2,1.69,0,1.1-1.5-2.5-6.51,3.39-5.09.82,2.28-1.52,1.35-1.71,2.24-.38,1.8.25,4.3.02,6.25,7.28.67,1.56-3.79,1.66-4.67.2-1.87,1.68-2,1.73-2.13l3.83-1.71c-.9-4.15-11.39-5.75-11.5-6.41-1.09-6.26,1.05-6.1,5.98-7.15ZM467.98,52.6c-.14-1.09.1-2.29,0-3.39-3.18,1.87-2.39-.85-3-.9-2.29-.21-7.25,4.03-5.04,4.3,2.59-.23,5.53.3,8.05,0,.35,2.78,1.44,1.33,1.69,1.7,1.32,1.87-.76,4.5,5.93,3.4-.19-1.27.29-3.15,0-4.25.08-1.13-.39-1.89-1.28-2.53l-.42.83c-.3-.17-1.2.14-1.69,0-4.25-1.21-1.11.47-4.24.85Z"/>
  <path class="cls-6" d="M95.18,201.96c.43,4.53,2.13,9.44-3.43,11.4-10.13,3.57-8.59-6.09-10.14-7.16-3.86-2.67-3.58,5.97-2.53,7.63-10.23,1.25-14.99-8.78-11.17-17.55,7.1-16.29,40.88-16.14,38.33,5.28-.42,3.54-5.86,9.89-6.8,5.04-.62-3.21.89-5.16-4.26-4.64Z"/>
  <path class="cls-6" d="M212.11,196.86c.2-3.64.71-8.39-4.26-6.31,2.78,8.54-8.17,13.04-12.63,6.68-2.23-3.18,1.24-8.68-3.77-7.04-2.94.96.36,5.81-.54,6.68-2.11,2.03-4.12-2.23-4.36-2.37-.34-.2-1.67.88-2.43.34-.68-.48-2.53-5.72-2.58-6.88-.99-21.17,36.52-23.57,39.67-4.89,1.19,7.04-1.41,13.23-9.11,13.8Z"/>
  <path class="cls-6" d="M430.42,190.35c.36.3,4.34,6.24,4.57,6.88,3.22,8.54-2.37,18.17-11.92,16.6-.48-.44,3.15-8.62-2.08-7.67-2.3.42-.22,9.55-9.18,7.5-6.65-1.52-4.45-5.12-4.84-9.6-.36-4.13-3.22-3.48-4.06-.66-.68,2.31.96,7.31-4.05,3.7-5.27-3.79-2.39-14.5,1.62-18.45,4.23-4.16,13.88-4.42,19.42-3.48,1.63.28,9.33,4.17,10.52,5.16Z"/>
  <path class="cls-6" d="M312.09,197.7c-.59-.66,1.14-6.47-1.28-7.63-4.95-1.56-.02,8.91-8.69,10.03-6.55.84-6.46-3.38-7.2-7.72-1.03-6.03-7.41-.38-4.01,4.47-6.84-.88-10.99-5.69-9.97-12.94,2.78-19.62,42.47-17.83,39.64,5.75-.55,4.57-4.14,7.12-8.48,8.04Z"/>
  <path class="cls-6" d="M459.21,23.2c3.95,3.6,5.85,12.32,5.39,17.52-1.61-.27-9.82.36-10.17,0-.31-.33.55-6.24-3.4-8.04-6.44-2.95-16.59,6.38-17.77,5.5-.89-3.9-2.91-7.7-2.49-11.82,7.41-1.99,21.82-9.19,28.44-3.15Z"/>
  <path class="cls-2" d="M434.94,42.41c7.77,3.12,8.91,7.53,3.76,14.37-3.25,4.31-5.63,4.43-10.28,1.93-6.55-3.53-5.37-9.62-1.1-14.6,2.7-.62.96,1.67,2.54,3.39,1.12,1.21,1.92.93,3.38.84-.08-1.36.55-3.55-.84-4.24.18-.16-.54-2.57,2.54-1.7Z"/>
  <path class="cls-2" d="M445.95,66.17c-.09.5.15,1.6,0,1.7-1.24.87-4.15-2.11-3.46,3.01.21,1.6,1.6,1.14,1.74,1.8.33,1.53-.34,3.37,0,4.77.09.38,4.58,3.43,3.41,6.53-.08-.08-1.01.21-1.72-.59-4.78-5.37-7.59-13.2-9.36-20.1,6.08-5.08,4.47,5.51,9.38,2.87Z"/>
  <path class="cls-2" d="M452.73,61.08c-.05.13-1.53.25-1.73,2.13-.09.88,5.62,5.34-1.66,4.67.24-1.95-.4-4.44-.02-6.25.19-.89,2.52.04,1.71-2.24-5.88-1.42-2.28,3.6-3.39,5.09-.14.2-1.48-.2-1.69,0-.28-2.23-3.12-3.75-3.83-5.08-2.55-4.78,11.89-1.98,10.61,1.68Z"/>
  <path class="cls-2" d="M451.04,45.81c20.74-4.41,42.64,4.45,21.18,24.61,2.2-4.72,4.16-6.53,6.22-12.49.09-.25,2.13-.04,1.39-3.04-.16-.65-2.6-1.85-3.09-2.57s-.07-2.03-.57-2.84c-1.83-2.99-6.57-1.63-9.5-3.63l-15.63-.05Z"/>
  <path class="cls-2" d="M416.3,49.2c2.44.43,5.69.24,3.84,3.42-1.54,2.65-15.2,3.58-18.56,3.26-2.2-.21-3.73-1.03-5.62-1.59,4.88-.75,12.8,1.04,17.21-.02.32-.08,2.23-3.24,5.66-1.68l-2.54-3.39Z"/>
  <path class="cls-2" d="M434.94,42.41c-3.08-.87-2.36,1.54-2.54,1.7-.73.65-3.3.13-2.54,3.39-1.59-1.72.16-4.02-2.54-3.39,2.66-3.1,4.09-3.12,7.63-1.7Z"/>
  <path class="cls-5" d="M75.98,138.86c-4.84-4.76-6.83-13.28-4.57-19.69,6.17-17.48,33.91-15.52,35.62,4.29.49,5.68-.21,8.79-3.79,13.15-6.72,8.18-19.61,9.76-27.25,2.25ZM80.77,113.7c-11,4.55-8.31,23.6,3.39,25.44-8.13-7.22-9.81-16.37-3.39-25.44ZM93.22,114.7c-5.46,1.69-2.81,11.99,4.48,8.73,5.22-2.34,2.09-10.76-4.48-8.73ZM83.4,133.13c.39.62,3.54,1.44,4.1-.4,1.81-5.89-6.74-3.81-4.1.4Z"/>
  <path class="cls-5" d="M199.17,127.05c-2.17,2.16-8.08,4.98-11.23,5.3-13.95,1.41-24.8-8.98-20.51-23.09,6.55-21.54,40.38-14.68,35.16,10.6-.15.72-3.06,6.82-3.42,7.18ZM191.77,127.27c12.1-5.26,10.35-23.75-2.54-26.29l5.11,5.48c4.26,7.65,2.7,14.3-2.57,20.81ZM175.43,105.38c-4.21,1.25-4.18,7.75,0,8.99,8.97,2.67,8.97-11.66,0-8.99ZM187.55,117.96c-.8,1.02.15,5.04,2.93,4.21,3.57-1.06-.83-6.9-2.93-4.21Z"/>
  <path class="cls-5" d="M50.35,67.8c-3.61-2.59-4.44-28.5-1.51-32.76,5.01-7.29,21.14,2.89,24.67,8.28,2.9,4.43-2.21,5.01-5.46,8-2.53,2.33-5.28,5.11-7.64,7.63-1.67,1.78-7.02,11.05-10.07,8.86Z"/>
  <path class="cls-5" d="M203.98,51.39c-2.73-2.11-5.17-4.73-8.06-6.78-2.56-1.81-10.76-5.05-10.98-7.76-.41-5.08,14.25-15.73,19.12-15.69,9.74.08,9.71,25.3,8.92,31.89s-6.32.41-9-1.67Z"/>
  <path class="cls-5" d="M138.4,142.55c-1.82,5.73-9.3,7.81-14.38,4.62-3.13-1.96-6.4-8.7-1.4-7.09,1.11.36,3.12,5.16,7.74,4.94,3.13-.15,7.27-5.49,6.24-8.7-.57-1.78-4.5-2.05-5.42-3.96-.73-1.5-1.06-5.19.96-5.83,1.45-.46,11.89-1.24,12.65-.17,3.09,4.34-4.38,8.1-4.61,9.05-1.07,4.41,7.93,10.29,12.24,5.5,1.32-1.47,1.41-3.97,3.34-5.15,3.93-.78,2.28,8.31-4.96,10.32-5.93,1.65-7.6-1.25-12.4-3.53Z"/>
  <path class="cls-3" d="M75.46,146.15c15.58-2.67,19.42,11.73,3.09,13.29-14.82,1.42-16.66-10.96-3.09-13.29Z"/>
  <path class="cls-3" d="M202.5,132.69c14.12-.05,13.41,12.01-.1,13.29-17.99,1.71-15.02-13.24.1-13.29Z"/>
  <path class="cls-5" d="M416.51,107.45c1.56.41,3.15.29,4.64.96,1.62.72,5.37,4.4,5.74,4.4,1.47.01,3.34-6.36,6.35-5.05.16,1.49.09,2.77-.47,4.2-1.07,2.76-4.78,2.94-2.91,5.98,1.06.92,8.8-6.83,8.36-1.4-.33,4.08-6.32,4.53-6.61,4.86-.41.47.47,4.74.25,6.55-2.47,20.16-33.23,20.62-36.55,1.25-2.29-13.39,7.79-22.65,20.61-23.02.38-.01.33,1.22.59,1.28ZM417.15,139.15c10.39-.62,14.3-14.12,8.83-22-.8-1.15-3.48-4.38-4.6-3.03,5.22,5.46,5.53,15.3.72,21.09-1.6,1.92-3.81,2.14-4.95,3.94ZM405.02,114.7c-5.46,1.69-2.81,11.99,4.48,8.73,5.22-2.34,2.09-10.76-4.48-8.73ZM418.82,133.19c.86-1.3-.32-5.02-2.94-4.21-1.21.37-1.76,3.49-1.26,4.21.34.5,3.87.49,4.2,0Z"/>
  <path class="cls-5" d="M298.42,99.39c.31.18,3.05,6.19,5.19,4.12,1.08-1.05-5.45-9.28-1.25-10.17,2.46-.53,2.27,5.41,4.31,5.87.43.1,5.83-2.32,8.35-2.51,12.41-.95,21.76,7.33,20.79,19.96-1.58,20.58-32.88,21.19-36.22,1.51-.61-3.58.89-9.2.53-10.68-.48-1.95-4.23-2.51-4.84-4.55-.7-2.34,1.02-4.76,3.16-3.54ZM311.22,100.97c-10.64,4.99-11.94,20.6-1.25,26.29-3.46-6.39-6.26-11.79-2.88-18.98,1.36-2.89,4.3-4.12,4.14-7.31ZM328.82,106.26c-6.37-6.38-13.25,8.3-3.61,8.3,4.89,0,6.17-5.73,3.61-8.3ZM314.62,122.18c1.27-.97.49-5.45-2-5.03-4.47.75-.35,6.82,2,5.03Z"/>
  <path class="cls-5" d="M297.48,21.36c6.07-.73,20.62,10.48,19.73,16.36-.41,2.69-3.21,2.39-5.04,3.51-3.33,2.03-6.66,3.97-9.8,6.3-2.76,2.04-12.25,13.66-13.2,5.53-.7-6.01.25-24.63,3.86-29.31.98-1.27,2.91-2.21,4.45-2.39Z"/>
  <path class="cls-5" d="M382.4,140.01c1.68,1.67-2.85,6.17-4.26,7.18s-3.27,1.01-4.59,2.19c-4.51,4.04-3.03,8.78-12.77,7.61-7.07-.85-7.2-6.96-10.21-10.98-1.38-1.85-7.29-4.94-6.25-8.88,1.53-5.78,5.57,3.96,6.4,4.49,3.95,2.55,10.63.11,10.59-4.58-.03-3.57-3.46-4.44-3.96-6.28-1.99-7.34,3.3-4.86,7.7-4.52,2.12.16,3.48-1.61,5.88,1.09,4.43,4.96-5.08,7.81-5.37,8.92-.65,2.43,2.88,7.25,5.23,8.23,6.02,2.53,8.91-7.16,11.61-4.47ZM369.65,147.71c-.12-.17-2.69-1.12-3.64-1.89s-2.21-3.16-2.68-3.28-6.05,4.12-8.06,3.85c-.1,6.14,6.85,9.54,11.88,5.89.95-.69,3.14-3.66,2.51-4.58Z"/>
  <path class="cls-3" d="M434.7,149.57c10.31,10.46-21.25,14.14-21.81,2.66-.37-7.72,16.94-7.6,21.81-2.66Z"/>
  <path class="cls-3" d="M299.08,132.69c11.38-.36,20.4,10.84,7.29,13.05-17.4,2.93-23.85-12.53-7.29-13.05Z"/>
  <path class="cls-1" d="M411.98,15.33c1.54,5.48-6.24,6.91-6.73,2.01-.41-4.11,4.09-3.13,6.73-2.01Z"/>
  <path class="cls-1" d="M414.61,23.74c-2.28-2.52,3.21-6.02,4.23-2.1.54,2.09-3.77,2.62-4.23,2.1Z"/>
  <path class="cls-1" d="M472.22,51.75c.5.14,1.4-.17,1.69,0,.31.18,1.65,1.54,1.69,1.7.29,1.1-.19,2.98,0,4.25-6.69,1.1-4.62-1.53-5.93-3.4-.07-1.72.86-2.62,2.54-2.55Z"/>
  <path class="cls-2" d="M467.98,52.6c-2.51.31-5.46-.22-8.05,0-2.22-.27,2.75-4.51,5.04-4.3.61.06-.17,2.77,3,.9.11,1.11-.13,2.3,0,3.39,3.12-.38-.02-2.05,4.24-.85-1.68-.07-2.61.83-2.54,2.55-.26-.36-1.34,1.08-1.69-1.7Z"/>
  <path class="cls-3" d="M475.61,53.44c-.04-.16-1.38-1.51-1.69-1.7l.42-.83c.89.64,1.36,1.4,1.28,2.53Z"/>
  <path class="cls-1" d="M432.4,44.11c1.39.69.76,2.88.84,4.24-1.47.08-2.27.37-3.38-.84-.76-3.27,1.81-2.75,2.54-3.39Z"/>
  <path class="cls-1" d="M93.22,114.7c6.56-2.03,9.69,6.39,4.48,8.73-7.28,3.26-9.94-7.04-4.48-8.73Z"/>
  <path class="cls-1" d="M80.77,113.7c-6.42,9.07-4.74,18.22,3.39,25.44-11.7-1.84-14.39-20.89-3.39-25.44Z"/>
  <path class="cls-1" d="M83.4,133.13c-2.64-4.21,5.91-6.29,4.1-.4-.56,1.84-3.71,1.02-4.1.4Z"/>
  <path class="cls-1" d="M175.43,105.38c8.97-2.67,8.97,11.65,0,8.99-4.18-1.24-4.21-7.74,0-8.99Z"/>
  <path class="cls-1" d="M191.77,127.27c5.27-6.51,6.83-13.16,2.57-20.81l-5.11-5.48c12.89,2.54,14.63,21.03,2.54,26.29Z"/>
  <path class="cls-1" d="M187.55,117.96c2.1-2.69,6.5,3.14,2.93,4.21-2.78.83-3.73-3.19-2.93-4.21Z"/>
  <path class="cls-1" d="M405.02,114.7c6.56-2.03,9.69,6.39,4.48,8.73-7.28,3.26-9.94-7.04-4.48-8.73Z"/>
  <path class="cls-1" d="M417.15,139.15c1.14-1.8,3.35-2.01,4.95-3.94,4.82-5.79,4.51-15.63-.72-21.09,1.12-1.35,3.8,1.88,4.6,3.03,5.47,7.88,1.56,21.37-8.83,22Z"/>
  <path class="cls-1" d="M418.82,133.19c-.33.49-3.86.5-4.2,0-.5-.73.05-3.84,1.26-4.21,2.61-.81,3.8,2.91,2.94,4.21Z"/>
  <path class="cls-1" d="M328.82,106.26c2.56,2.57,1.28,8.3-3.61,8.3-9.65,0-2.76-14.67,3.61-8.3Z"/>
  <path class="cls-1" d="M314.62,122.18c-2.35,1.79-6.47-4.27-2-5.03,2.49-.42,3.27,4.06,2,5.03Z"/>
  <path class="cls-1" d="M311.22,100.97c.17,3.19-2.78,4.41-4.14,7.31-3.38,7.19-.58,12.59,2.88,18.98-10.69-5.69-9.38-21.3,1.25-26.29Z"/>
  <path class="cls-4" d="M369.65,147.71c.63.91-1.56,3.89-2.51,4.58-5.03,3.64-11.98.25-11.88-5.89,2.01.27,7.59-3.97,8.06-3.85s1.69,2.47,2.68,3.28,3.53,1.72,3.64,1.89Z"/>
  <g>
    <path class="cls-5" d="M228.37,255.37c-.45-.4-1.08-.17-1.8.09-.57.21-1.28.47-2.03.5-.88.03-2.57.26-3.36-.11-1.12-.52-.78-2.42-.63-3.78.3-2.83,3.64-6.36,1.19-9.19-1.81-2.09-5.34-.07-7.68,1.27-.6.34-1.31.75-1.71.9.01-.15.03-.34.05-.5.11-.96.26-2.28-.52-2.99-.44-.4-1.08-.53-1.91-.37-.46.09-1.38.91-4.27,3.67-1.65,1.57-3.51,3.35-4.29,3.86-1.39.91-6.55,3.68-7.86,3.82,0-.99.26-4.14.4-4.64.04-.05.24-.12.36-.16.29-.1.65-.22.87-.54.21-.31.46-.66.73-1.03,1.43-1.97,3.39-4.68,1.71-6.79-.74-.93-1.5-1.4-2.28-1.38-1.13.02-1.88,1.02-2.29,1.56-.04.05-.07.09-.1.13-.25-.03-.65-.13-1.04-.22-.99-.25-2.35-.6-3.72-.45-3.79.39-5.53,2.35-7.21,4.24-.79.89-1.61,1.81-2.65,2.57-.53.39-1.27.68-1.98.96-.7.28-1.43.57-2.03.97l-.26.17c-11.8,7.95-13.9,8.39-14.24,8.36-.11-.02-.18-.06-.23-.16-.32-.56-.03-2.08.32-2.92.2-.48,1.34-1.53,2.55-2.65,2.83-2.61,6.34-5.85,6.01-8.57-.12-1.01-.76-1.84-1.9-2.46-1.33-.73-2.65-.87-3.91-.42-3.62,1.3-5.92,7.08-7.6,11.3-.51,1.29-.95,2.4-1.31,3.04-.51.91-1.78,1.63-2.58,2.24-4.17,3.16-8.82,6.06-13.97,7.43-1.85.49-4.67,1.68-5.02-.98-.21-1.58.27-3.44.79-4.92.17-.47,1.5-4.99,1.96-4.99.93-1.53,2.44-3.02,3.9-4.46,1.1-1.09,2.14-2.11,2.95-3.15,3.76-4.86,8-10.43,10.6-15.01l.26-.45c1.85-3.23,5.69-9.95,3.75-12.92-.73-1.11-2.13-1.57-4.19-1.35-4.83.51-11.06,10.62-12.86,13.71-2.44,4.2-3.96,8.73-5.42,13.11-1.26,3.78-2.46,7.36-4.16,10.48-2.7,4.95-23.6,21.45-29.39,24.65-4.95,2.74-10.64,4.53-16.17,5.67-7,1.44-15.03,1.08-18.27-6.25-3.17-7.17-4.93-14.9-4.17-22.74.76-7.88,3.73-15.42,7.99-22.06,4.63-7.2,10.12-13.93,16.73-19.37,3-2.47,6.28-4.69,9.98-5.88,3.95-1.27,8.18-1.31,12.34-1.23,4.13.08,8.45.31,12.01,2.42,3.83,2.28,6.28,6.72,6.15,11.17-.1,3.48-1.63,6.76-3.39,9.77-5.56,9.49-14.46,20.48-24.63,25.3-1.05.5-2.24.89-3.35.57-2.85-.8-1.86-6.56-1.53-8.68.48-3.1,1.8-6.04,3.26-8.78,2.43-4.57,5.29-8.9,8.54-12.93-.3-.4-.92-.33-1.4-.18-3.67,1.16-6.1,4.58-7.99,7.92-2.48,4.38-4.54,9.09-5.3,14.07-.55,3.59-.7,11.43,4.03,12.57,1.46.35,3.01-.03,4.33-.74,6.94-3.73,13.38-10.66,18.74-16.33,4.74-5.02,9.17-10.61,11.17-17.22,1.13-3.73,1.42-7.82.1-11.49-1.51-4.18-5.03-7.46-9.09-9.27s-8.62-2.27-13.06-2c-15.46.95-26.68,10.34-35.4,22.38-8.63,11.92-14.76,26.3-12.9,41.27.39,3.16,3,12.52,4.48,15.57,1.69,3.48,10.77,7.45,14.6,7.47,2.14,0,15.35-3.46,17.62-4.38,2.41-.99,5.27-3.06,8.04-5.07,2.55-1.85,5.18-3.76,7.46-4.83l17.24-14.9c.03.86-.18,2.06-.37,3.16-.32,1.82-.61,3.54-.11,4.49,1.69,3.17,8.26,1.93,10.59.91,4.04-1.79,10.71-5.43,14.18-7.99.4-.29.67-.68.9-1.03.18-.26.4-.58.55-.61.03,0,.16,0,.44.21.15.11.23.36.33.64.25.71.63,1.78,2.55,1.94.91.1,6.38-1.69,7.21-2.09,1.33-.63,3.14-2.35,4.59-3.73.73-.7,1.37-1.29,1.77-1.59.49-.37,3.31-1.68,4.49-1.98-.08.21-.18.46-.28.69-.81,1.98-2.17,5.3-.87,7.21.62.91,1.74,1.33,3.3,1.34,1.56-.01,7.14-2.96,8.46-3.87.5-.34.86-.93,1.17-1.45.15-.24.35-.57.36-.6.83-.18.93.1,1.19.83.19.51.42,1.15,1.05,1.53,2.41,1.46,3.35.31,3.85-.3.08-.1.21-.26.26-.29.4-.14.82-.2,1.26-.26.67-.1,1.37-.2,2.1-.57.57-.28,1.69-1.04,2.98-1.93,1.47-1,3.93-2.68,4.4-2.74.06,0,.1.03.11.01.14.46-1.16,2.31-1.59,2.92-.44.63-.65.94-.72,1.17-.31.97-.64,2.36.04,3.19.4.5,1.08.71,2.01.62,1.92-.18,3.77-2.78,5.57-5.29.95-1.33,1.85-2.59,2.68-3.39,1.87-1.8,3.62-2.82,4.01-2.61.06.03.19.28.06,1.06-.15.93-.5,1.99-.87,3.1-.81,2.43-1.65,4.95-.48,6.62.72,1.04,2.09,1.58,4.18,1.65,1.24.02,2.54-.43,3.79-.88,1.41-.51,2.87-1.04,4.24-.84l.45.06.11-.44c.24-1,.31-1.75-.12-2.14ZM136.72,243.62c.01-.57.03-1.11.16-1.42.07-.15.24-.24.53-.36.34-.15.77-.33.97-.81,2.3-5.54,7.72-16.82,11.76-19.83.79-.59,2.38-1.53,2.93-1.63.86,2.21-8.76,16.37-12.01,20.34l-4.37,4.52c.02-.28.03-.56.03-.83ZM159.32,246.41c.58-1.21.94-2.63,1.83-3.66,1.23-1.41,2.38-1.13,2.56.79.12,1.26-.36,2.29-1.32,3.1-.83.7-1.83,1.21-2.5,2.06-2,2.54-1.19-.98-.57-2.29ZM189.88,245.83c-.3.67-4.89,6.59-5.54,7.16-.95.82-4.32,2.69-4.9,2.39-.33-.4.48-3.19,2.73-6.37.85-1.21,3.61-4.78,6.27-4.78.32,0,.65.05.97.17.23.09.85.31.48,1.43Z"/>
    <path class="cls-5" d="M364.04,251.67h0c.24-.18.87-.44,1.48-.68,1.65-.67,2.67-1.12,2.69-1.88,0-.36-.14-1.06-.66-.97-4.25.7-.72-2.72-.55-3.66.47-2.58,1.06-5.8-3.83-7.11-3.85-1.03-8.14,2.07-10.44,3.74-.31.22-.64.46-.91.65.54-1.17,2.35-3.6,3.51-5.16,1.52-2.05,2.83-3.82,3.15-4.73.01-.04,1.11-4.21.52-4.88-.25-.29-.88-.31-1.21-.31-.4,0-1.13.09-1.51.56-.6.74-1.33,2.15-2.1,3.65-.7,1.37-1.43,2.78-2.07,3.68-2.2,3.1-8.89,12.54-14.07,15.28-3.92,2.08-4.52,1.64-4.58,1.58-.42-.42,1.04-3.09,1.82-4.53,1.18-2.17,2.2-4.05,1.96-5.16-.18-.83-.5-1.36-.96-1.6,0,0,0,0,.01,0,.2-.12.46-.35.53-.83.32-2.02-1.48-4.49-3.57-4.9-3.04-.6-6.97,1.37-10.8,5.41-3.96,4.17-7.45,10.44-6.46,14.36.12.47.44.86.96,1.14,1.95,1.07,6.45.51,7.86.04.6-.2,1.15-.62,1.69-1.02.62-.47,1.2-.91,1.73-.92h.02c.51,0,.82.24,1.25.57.96.74,2.15,1.66,5.82.67,2.94-.79,5.18-2.6,7.34-4.36.11-.09.23-.19.35-.28-.12.13-.24.27-.37.4-.64.69-1.3,1.41-1.87,2.29-2.74,4.3-6.62,13.74-7.33,18.99-.01.08-.89,8.07.21,8.98.11.09.25.13.4.13s.33-.04.53-.09c.03,0,3.46-.96,3.74-1.64.55-1.31.9-3.25,1.23-5.13.26-1.49.51-2.89.85-3.94l.33-1.03c1.62-5.1,4.65-14.6,6.75-18.52,1.38-2.59,10.04-8.65,13.02-8.65h0c1.75,0,2.77.28,3.2.85.34.46,1.01,1.7.06,2.22-6.83,3.76-12.72,8.54-12.12,12.09.28,1.64,1.37,2.56,3.07,2.59,2.29.03,4.66-2.73,6.75-5.18.97-1.13,1.88-2.2,2.59-2.74ZM355.63,255.01c-.19-.52.56-1.88,2.08-3.19,1.05-.91,1.9-1.3,2.34-1.37-.59,1.03-2.41,3.63-2.71,3.97-.29.24-1.32.58-1.71.59ZM334.96,240.21c-1.49.73-3.25,3.4-4.96,6.27-.21.35-.36.6-.41.68-.99,1.21-4.96,4.44-6.09,4.68-1.37.3-2.26.25-2.61-.15-.62-.73.25-2.9.53-3.61,1-2.51,7.64-8.79,10.41-8.87,0,0,.01,0,.02,0,.36,0,1.03.26,1.63.5.52.2,1.03.4,1.49.51Z"/>
    <path class="cls-5" d="M318.35,225.3c1.22-2.03,2.52-4.03,4.08-5.71.84-.91,5.06-4.85,3.57-6.38-.47-.48-3.09-.36-3.74-.03-.7.36-6.69,8.22-6.97,8.61-1.01,1.46-2.11,3.32-3.39,5.67-.49.91-1.26,2.78-2.08,4.76-1.12,2.72-2.52,6.09-3.05,6.65-.39.25-4.54,1.95-4.97,2.04-1.85.17-2.75-.68-3.8-1.65-.65-.6-1.32-1.23-2.24-1.63-.7-.31-1.75-.39-2.53-.46-.06,0-.11,0-.16-.01.95-1.89,2.24-3.42,3.08-5.38,1.4-3.28,3.38-6.62,4.07-10.15.62-3.14-.06-6.72-2.63-8.85-2.18-1.81-6.4,1.17-8.36,2.28-5.45,3.09-12.32,8.53-10.51,15.76,1.13.15,2.07-1.13,2.51-2.07.49-1.06.71-2.24,1.21-3.3,1.64-3.52,7.13-6.31,10.6-7.65,1.49-.58,2.52-.59,3.04-.03,1.34,1.43.08,6.83-3.28,14.09-2.08,4.49-3.24,5.61-6.04,8.29-.4.39-.84.81-1.32,1.27-2.68,2.62-2.74,3.62-2.6,5.17.06.7.13,1.49-.23,2.75-.8,2.8-3.31,6.45-5.72,9.97-1.6,2.33-3.11,4.53-4.1,6.44l-.33.63c-1.42,2.67-4.07,7.64-1.36,9.46.41.27.96.59,1.49.59.16,0,.32-.03.48-.1.72-.33.82-1.28.93-2.36.06-.59.13-1.2.29-1.73,1.77-5.78,10.65-22.15,14.39-26.54,1.31-1.53,3.89-3.94,6.55-2.9.45.18.76.62,1.08,1.1.29.43.59.87,1.03,1.11,2.15,1.22,4.97-.05,6.49-.73.09-.04.19-.09.29-.13-.15.8-.77,2.44-1.28,3.81-1.44,3.82-3.22,8.58-2.2,11.08.12.3,1.98,2.38,2.92,2.58.37.08.6-.07.7-.17.24-.22.21-.47.09-1.63-.08-.81-.21-2.03-.11-2.55,1.08-5.38,2.97-10.64,5.03-15.72,1.68-4.14,4-7.97,6.38-11.73.92-1.45,1.8-3,2.72-4.53Z"/>
    <path class="cls-5" d="M260.83,234.15c-4.49.22-3.61-1.62-5.88-1.38-1.05.11-2.25.63-2.43,1.67-.26,1.52,1.5,2.59,1.49,4.12,0,1.43-1.13,3.76-2.27,4.63-.3.23-.57.31-.82.24-.47-.12-2.16-2.04-3.42-4.35-.92-1.69-1.12-2.68-1.01-3,.15-.25,1.44-1.59,2.47-2.67,1.55-1.61,3.3-3.42,3.84-4.22l.41-.58c.78-1.12,1.86-2.64,2.11-3.6.4-1.52.02-8.07-.68-9.26-.6-1.02-1.59-1.5-2.84-1.39-3.63.31-9.2,5.67-10.08,7.98-.74,1.97-.88,5.87-.9,8.01,0,.83.24,1.69.46,2.44.21.72.41,1.4.33,1.85-.21,1.24-1.36,2.98-2.57,4.83-2.28,3.48-5.12,7.8-3.78,11.72.42,1.24,1.17,2.07,2.21,2.48.5.2,1.06.28,1.65.28,2.78,0,6.36-1.93,9.1-3.42,1.51-.81,2.93-1.58,3.5-1.62,1.14-.06,1.84.5,2.57,1.1.62.51,1.27,1.05,2.18,1.12,1.71.11,3.64-.85,4.4-2.22.56-1.01.44-2.13-.31-3.15-.56-.76-2.22-1.22-4.02-1.66-.2-.05-.41-.1-.57-.14.42-1.39,1.5-5.89,2.85-6.42,18.12-7.11,10.78-6.37,10.06-6.47-1.76-.25-1.3,2.75-8.05,3.08ZM247.96,246.08c-.03.14-.16.35-.43.61-1.72,1.71-6.54,3.47-7.27,3.07-.52-.96,1.81-8.5,2.58-9.75.67.28,2.29,3.04,2.84,3.97.36.62.62,1.06.79,1.28.39.5,1.08.7,1.49.81ZM244.89,227.46c.24-2.74,4.08-7.49,6.05-7.49h.01c.63,0,.99.65,1.08,1.92.16,2.46-5.12,8.38-6.72,9.61-.19-1.05-.47-3.5-.42-4.04Z"/>
    <path class="cls-5" d="M387.76,236.25c-.91-.53-2.46-.57-3.58-.6-.2,0-.43-.01-.6-.02.05-.42.36-1.29.55-1.85.5-1.44.68-2.04.33-2.41-.37-.39-2.5-.35-2.94-.15-1.05.47-3.03,4.78-6.32,12.58-.53,1.25-.95,2.24-1.17,2.72-4.51,9.67-9.62,20.62-13.07,31.85-.46,1.5-.85,3.03-.05,3.75.27.25.62.34.99.34.59,0,1.24-.23,1.76-.45,1.36-.58,2.61-4.74,4.69-12.05,1.68-5.9,3.59-12.58,5.22-14.13l.09-.08.24-.68c1.8-5.1,4.03-11.45,8.88-14.22,1.06-.6,2.45-1.15,3.08-.31,1.21,1.61-.33,7.08-2.12,8.81-.47.46-1.16.63-1.9.81-.66.16-1.34.33-1.94.73-.57.38-5.56,3.77-5.83,7.47-.09,1.31.42,2.46,1.51,3.44.62.55,1.31.77,2.05.66,2.25-.33,4.35-3.71,5.88-6.18.53-.85,2.1-3.29,2.32-3.53,3.35-3.73,5.29-1.4,5.25-3.79-.03-2.29-3.15-.2-2.9-.64.19-.34.47-.84.85-2.12.64-2.15,2.34-7.86-1.26-9.94ZM380.39,256.23c-.35.42-.71.83-1.01,1.31-.35.57-.85,1.03-1.55.66-.5-.26-.6-.9-.36-1.37.73-1.43,4.11-3.89,4.48-3.56.24.22-.61,1.58-.72,1.79-.24.43-.53.8-.84,1.17Z"/>
    <path class="cls-5" d="M445.71,254.79c-3.89-2.96-9.15-3.06-13.83-2.97-6.74.13-13.64,1.32-19.84,4.04-1.01.44-3.03,1.55-4.17,1.22.17-1.28,2.35-7.55,2.86-8.75.26-.61,1.05-1.96,1.96-3.53,3.77-6.49,5.44-9.78,4.72-10.95-.41-.66-.9-1-1.46-1.02-1.19-.07-2.18,1.33-3.16,2.66-.41.56-.8,1.09-1.12,1.39-3.76,3.53-10.09,8.51-11.1,8.16-.54-.2-.62-.46-.65-.54-.24-.72.64-2.11,1.42-3.34,1.05-1.66,2.13-3.37,1.4-4.61-.4-.68-1.02-1-1.73-.89-2.3.36-5.22,5.15-5.55,6.61-.85,3.7-.52,5.95,1.01,6.87,3.2,1.93,10.36-3.43,12.96-5.53-.24.72-.7,1.53-1.15,2.32-.35.61-.71,1.24-.96,1.82-.26.6-.81,2.11-1.46,3.87-.96,2.62-2.58,7-2.91,7.43-.33.3-2.86,1.51-4.9,2.48-2.51,1.2-5.1,2.43-6.13,3.11-8.51,5.63-21.74,17.18-14.78,31.29,1.12,2.26,3.02,3.59,5.37,3.74.15,0,.29.01.44.01,3.01,0,6.3-1.86,8.12-4.64,4.49-6.83,7.59-14.75,10.6-22.41,1.64-4.2,3.34-8.53,5.24-12.58.33-.71,4.38-1.49,5.19-1.75,7.64-2.47,15.02-4.68,23.15-4.31,2.13.1,4.32.36,6.2,1.35,5,2.63,6.44,9.04,4.36,14s-6.56,8.41-10.54,11.7c-.49.41-.98.81-1.5,1.25l-7.13,7.73,2.25-1.02c7.12-3.23,20.39-14.01,21.52-23.98.46-4.05-1.13-7.5-4.72-10.23ZM396.54,275.57l-.65,1.48c-2.11,4.84-7.73,17.68-11.07,18.85-1.02.35-2.06-.2-3.03-.8-2.54-1.57-3.11-7.9-2.58-10.83.94-5.14,8.38-12.59,12.85-16.08.89-.69,7.91-5.14,10.03-6.11-.31,1.1-1.47,4.29-5.55,13.5Z"/>
  </g>
</svg>